# xmcd
#
# Track frame offsets:
#	150
#	20305
#	33363
#	51375
#	67213
#	82350
#	97128
#	111538
#	125213
#	139413
#	155013
#	172570
#	185500
#	205125
#
# Disc length: 2980 seconds
#
# Revision: 0
# Processed by: cddbd v1.5.1PL0 Copyright (c) Steve Scherf et al.
# Submitted via: dBpowerAMP V4.0
#
DISCID=d80ba20e
DTITLE=Marc Bianco - Eine kleine Liebesmelodie
DYEAR=1992
DGENRE=Schlager
TTITLE0=Eine kleine Liebesmelodie
TTITLE1=Du i hab' dei Herzerl g'hört
TTITLE2=Wir seh'n uns wieder
TTITLE3=Nur in der Heimat (blüh'n die schönsten Rosen)
TTITLE4=Du, und ich und Du
TTITLE5=Das Glück ist so scheu wia a Nachtigall
TTITLE6=Weiße Wolken ziehen
TTITLE7=Ich schwing in meiner Hängematte
TTITLE8=Venezia
TTITLE9=Solang die Rosen noch blüh'n
TTITLE10=Das kleien Glück
TTITLE11=Viva Maria
TTITLE12=Wenn der Wind von Süden weht
TTITLE13=Hasta La Vista Carlito
EXTD=
EXTT0=
EXTT1=
EXTT2=
EXTT3=
EXTT4=
EXTT5=
EXTT6=
EXTT7=
EXTT8=
EXTT9=
EXTT10=
EXTT11=
EXTT12=
EXTT13=
PLAYORDER=
